<svg xmlns="http://www.w3.org/2000/svg"
    xmlns:xlink="http://www.w3.org/1999/xlink" viewBox="0 0 564 458">
    <defs>
        <style>.cls-1{fill:#440eaa;}.cls-2,.cls-3{fill:none;stroke-dasharray:4 4;}.cls-2{stroke:#bbb;}.cls-3{stroke:#440eaa;}.cls-4{fill:#fff;}.cls-14,.cls-15,.cls-16,.cls-17,.cls-18,.cls-19,.cls-21,.cls-22,.cls-23,.cls-24,.cls-25,.cls-27,.cls-28,.cls-29,.cls-30,.cls-31,.cls-32,.cls-33,.cls-34,.cls-35,.cls-36,.cls-37,.cls-5,.cls-6,.cls-7,.cls-8{isolation:isolate;}.cls-16,.cls-5{opacity:0.7;}.cls-5{fill:url(#linear-gradient);}.cls-17,.cls-18,.cls-19,.cls-23,.cls-24,.cls-25,.cls-6,.cls-7,.cls-8{opacity:0.9;}.cls-6{fill:url(#linear-gradient-2);}.cls-7{fill:url(#linear-gradient-3);}.cls-8{fill:url(#linear-gradient-4);}.cls-15,.cls-22,.cls-9{opacity:0.2;}.cls-10{fill:url(#linear-gradient-5);}.cls-11,.cls-29,.cls-30,.cls-33,.cls-34,.cls-36,.cls-37{opacity:0.5;}.cls-12,.cls-27,.cls-28,.cls-31,.cls-32,.cls-35{opacity:0.3;}.cls-13{fill:#f3f8ff;}.cls-14,.cls-21{opacity:0.1;}.cls-14{fill:url(#linear-gradient-7);}.cls-15{fill:url(#linear-gradient-8);}.cls-16{fill:url(#linear-gradient-9);}.cls-17{fill:url(#linear-gradient-10);}.cls-18{fill:url(#linear-gradient-11);}.cls-19{fill:url(#linear-gradient-12);}.cls-20{fill:url(#linear-gradient-13);}.cls-21{fill:url(#linear-gradient-15);}.cls-22{fill:url(#linear-gradient-16);}.cls-23{fill:url(#linear-gradient-18);}.cls-24{fill:url(#linear-gradient-19);}.cls-25{fill:url(#linear-gradient-20);}.cls-26{fill:#0094fc;}.cls-27{fill:url(#linear-gradient-25);}.cls-28{fill:url(#linear-gradient-26);}.cls-29{fill:url(#linear-gradient-27);}.cls-30{fill:url(#linear-gradient-28);}.cls-31{fill:url(#linear-gradient-29);}.cls-32{fill:url(#linear-gradient-30);}.cls-33{fill:url(#linear-gradient-31);}.cls-34{fill:url(#linear-gradient-32);}.cls-35{fill:url(#linear-gradient-34);}.cls-36{fill:url(#linear-gradient-35);}.cls-37{fill:url(#linear-gradient-36);}</style>




        <linearGradient id="linear-gradient" x1="495.08" y1="172.51" x2="495.08" y2="114.85" gradientTransform="matrix(1, 0, 0, -1, 0, 460)" gradientUnits="userSpaceOnUse">
            <stop offset="0" stop-color="#6483cb"/>
            <stop offset="1" stop-color="#8da7e2"/>
        </linearGradient>
        <linearGradient id="linear-gradient-2" x1="528.09" y1="113.7" x2="528.09" y2="146.47" gradientTransform="matrix(1, 0, 0, -1, 0, 460)" gradientUnits="userSpaceOnUse">
            <stop offset="0" stop-color="#532d9d"/>
            <stop offset="1" stop-color="#422a72"/>
        </linearGradient>
        <linearGradient id="linear-gradient-3" x1="461.92" y1="113.7" x2="461.92" y2="146.44" gradientTransform="matrix(1, 0, 0, -1, 0, 460)" gradientUnits="userSpaceOnUse">
            <stop offset="0" stop-color="#b792ff"/>
            <stop offset="1" stop-color="#21035a"/>
        </linearGradient>
        <linearGradient id="linear-gradient-4" x1="494.97" y1="121.27" x2="494.97" y2="171.63" gradientTransform="matrix(1, 0, 0, -1, 0, 460)" gradientUnits="userSpaceOnUse">
            <stop offset="0" stop-color="#682bdc"/>
            <stop offset="1" stop-color="#190440"/>
        </linearGradient>
        <linearGradient id="linear-gradient-5" x1="495.08" y1="179.69" x2="495.08" y2="123.32" gradientTransform="matrix(1, 0, 0, -1, 0, 460)" gradientUnits="userSpaceOnUse">
            <stop offset="0" stop-color="#6483cb"/>
            <stop offset="1" stop-color="#fff"/>
        </linearGradient>
        <linearGradient id="linear-gradient-7" x1="500.19" y1="192.82" x2="487.24" y2="137.72" gradientTransform="matrix(1, 0, 0, -1, 0, 460)" gradientUnits="userSpaceOnUse">
            <stop offset="0" stop-color="#fff"/>
            <stop offset="1" stop-color="#fff" stop-opacity="0"/>
        </linearGradient>
        <linearGradient id="linear-gradient-8" x1="463.88" y1="193.85" x2="463.88" y2="139.13" xlink:href="#linear-gradient-7"/>
        <linearGradient id="linear-gradient-9" x1="495.08" y1="172.35" x2="495.08" y2="114.69" xlink:href="#linear-gradient"/>
        <linearGradient id="linear-gradient-10" x1="528.09" y1="113.54" x2="528.09" y2="146.3" xlink:href="#linear-gradient-2"/>
        <linearGradient id="linear-gradient-11" x1="461.92" y1="113.53" x2="461.92" y2="146.28" xlink:href="#linear-gradient-3"/>
        <linearGradient id="linear-gradient-12" x1="494.97" y1="121.11" x2="494.97" y2="171.47" xlink:href="#linear-gradient-4"/>
        <linearGradient id="linear-gradient-13" x1="495.08" y1="179.52" x2="495.08" y2="123.15" xlink:href="#linear-gradient-5"/>
        <linearGradient id="linear-gradient-15" x1="500.19" y1="192.65" x2="487.24" y2="137.55" xlink:href="#linear-gradient-7"/>
        <linearGradient id="linear-gradient-16" x1="463.88" y1="193.69" x2="463.88" y2="138.96" xlink:href="#linear-gradient-7"/>
        <linearGradient id="linear-gradient-18" x1="528.09" y1="113.7" x2="528.09" y2="146.47" gradientTransform="matrix(1, 0, 0, -1, 0, 460)" gradientUnits="userSpaceOnUse">
            <stop offset="0" stop-color="#0094fc"/>
            <stop offset="1" stop-color="#0069b2"/>
        </linearGradient>
        <linearGradient id="linear-gradient-19" x1="461.92" y1="113.7" x2="461.92" y2="146.44" gradientTransform="matrix(1, 0, 0, -1, 0, 460)" gradientUnits="userSpaceOnUse">
            <stop offset="0" stop-color="#0094fc"/>
            <stop offset="1" stop-color="#0069b3"/>
        </linearGradient>
        <linearGradient id="linear-gradient-20" x1="494.97" y1="121.27" x2="494.97" y2="171.63" gradientTransform="matrix(1, 0, 0, -1, 0, 460)" gradientUnits="userSpaceOnUse">
            <stop offset="0" stop-color="#0094fc"/>
            <stop offset="1" stop-color="#006bb6"/>
        </linearGradient>
        <linearGradient id="linear-gradient-25" x1="461.21" y1="224.61" x2="502.12" y2="198.61" gradientTransform="matrix(1, 0, 0, -1, 0, 460)" gradientUnits="userSpaceOnUse">
            <stop offset="0" stop-color="#0094fc" stop-opacity="0"/>
            <stop offset="1"/>
        </linearGradient>
        <linearGradient id="linear-gradient-26" x1="521.54" y1="175.24" x2="525.08" y2="192.03" gradientTransform="matrix(1, 0, 0, -1, 0, 460)" gradientUnits="userSpaceOnUse">
            <stop offset="0"/>
            <stop offset="1" stop-color="#0094fc" stop-opacity="0"/>
        </linearGradient>
        <linearGradient id="linear-gradient-27" x1="476.27" y1="196.23" x2="454.58" y2="178.48" gradientTransform="matrix(1, 0, 0, -1, 0, 460)" gradientUnits="userSpaceOnUse">
            <stop offset="0"/>
            <stop offset="1" stop-color="#361090" stop-opacity="0"/>
        </linearGradient>
        <linearGradient id="linear-gradient-28" x1="530.25" y1="152.63" x2="489.35" y2="178.63" xlink:href="#linear-gradient-26"/>
        <linearGradient id="linear-gradient-29" x1="461.21" y1="224.45" x2="502.12" y2="198.45" xlink:href="#linear-gradient-25"/>
        <linearGradient id="linear-gradient-30" x1="521.54" y1="175.07" x2="525.08" y2="191.87" xlink:href="#linear-gradient-26"/>
        <linearGradient id="linear-gradient-31" x1="476.27" y1="196.06" x2="454.58" y2="178.32" xlink:href="#linear-gradient-27"/>
        <linearGradient id="linear-gradient-32" x1="530.25" y1="152.47" x2="489.35" y2="178.46" xlink:href="#linear-gradient-26"/>
        <linearGradient id="linear-gradient-34" x1="521.54" y1="175.24" x2="525.08" y2="192.03" xlink:href="#linear-gradient-26"/>
        <linearGradient id="linear-gradient-35" x1="476.27" y1="196.23" x2="454.58" y2="178.48" xlink:href="#linear-gradient-27"/>
        <linearGradient id="linear-gradient-36" x1="530.25" y1="152.63" x2="489.35" y2="178.63" xlink:href="#linear-gradient-26"/>
    </defs>

    <symbol id="arrow" width="15" height="18" viewBox="0 0 15 18">
        <path fill="#440eaa" class="cls-1" d="M7,13.18a.27.27,0,0,1,.26,0l7,4.15L7.18,0,0,17.6Z"/>
    </symbol>

    <use id="arrow_1" class="arrow" href="#arrow" x="0" y="0" />

    <g id="paths">
        <path id="path11" class="cls-2" d="M54.83,328.06c206.55,99.8,339.05,49.1,409,3.91"/>
        <path id="path10" class="cls-2" d="M180.2,329.26C298,392.5,415.52,358.34,464,327"/>
        <path id="path9" class="cls-3" d="M32.54,214.76C216.83,376.35,369.62,358.1,455.79,328.86"/>
        <path id="path8" class="cls-2" d="M75.13,170.9C227.1,341,370.32,341.45,453.23,324.2"/>
        <path id="path7" class="cls-3" d="M83.61,101C211,294.84,355,316.71,440.94,311.77"/>
        <path id="path6" class="cls-2" d="M440.65,306.34C310.35,293.81,257.76,238.7,235,202.06"/>
        <path id="path5" class="cls-3" d="M208.5,161c158.1,25.26,219.05,95.73,244,142.2"/>
        <path id="path4" class="cls-2" d="M352.67,172.14c81.57,47.73,99.31,99.79,103.11,130.7"/>
        <path id="path3" class="cls-2" d="M276.79,76.09c143.87,81.2,176.31,171.69,183.8,225.62"/>
        <path id="path2" class="cls-3" d="M394.94,119.21c76.34,94.11,74.13,164.6,64.73,203.41"/>
        <path id="path1" class="cls-2" d="M436.57,9c74.61,147.4,51.36,240.69,27.66,289.7"/>

        <circle class="cls-4" cx="86" cy="103.77" r="3"/>
        <circle class="cls-1" cx="86" cy="103.77" r="2"/>
        <circle class="cls-4" cx="73" cy="168.77" r="3"/>
        <circle class="cls-1" cx="73" cy="168.77" r="2"/>
        <circle class="cls-4" cx="72" cy="246.77" r="3"/>
        <circle class="cls-1" cx="72" cy="246.77" r="2"/>
        <circle class="cls-1" cx="183" cy="329.77" r="2"/>
        <circle class="cls-4" cx="63" cy="332" r="3"/>
        <circle class="cls-1" cx="63" cy="332" r="2"/>
        <circle class="cls-4" cx="262" cy="235.77" r="3"/>
        <circle class="cls-1" cx="262" cy="235.77" r="2"/>
        <circle class="cls-4" cx="240" cy="166.77" r="3"/>
        <circle class="cls-1" cx="240" cy="166.77" r="2"/>
        <circle class="cls-4" cx="368" cy="181.77" r="3"/>
        <circle class="cls-1" cx="368" cy="181.77" r="2"/>
        <circle class="cls-4" cx="402" cy="127.77" r="3"/>
        <circle class="cls-1" cx="402" cy="127.77" r="2"/>
        <circle class="cls-4" cx="273" cy="73.77" r="3"/>
        <circle class="cls-1" cx="273" cy="73.77" r="2"/>
        <circle class="cls-4" cx="454" cy="45" r="3"/>
        <circle class="cls-1" cx="454" cy="45" r="2"/>
        <circle class="cls-4" cx="183" cy="329.77" r="3"/>
    </g>
    <g id="base">
        <path class="cls-5" d="M495.08,345.15l.06,0,66.36-28.8-.21-.1-66.21-28.73-.05,0-66.37,28.81.22.09ZM561,316.32l-65.88,28.6-65.88-28.6,65.88-28.6Z"/>
        <path class="cls-6" d="M495.07,345v-8.3l66-28.31v8Z"/>
        <path class="cls-7" d="M495.07,345v-8.31l-66.3-28.27v8Z"/>
        <path class="cls-8" d="M494.92,280.43l-66.16,28,66.3,28.28,66.12-28.28Z"/>
        <g class="cls-9">
            <path class="cls-10" d="M495.08,336.68l66.42-28.19-.21-.1-66.21-28.08-.05,0-66.37,28.16.22.09ZM561,308.49l-65.88,27.95L429.2,308.49l65.88-27.95Z"/>
            <path class="cls-10" d="M495.08,336.68l66.42-28.19-.21-.1-66.21-28.08-.05,0-66.37,28.16.22.09ZM561,308.49l-65.88,27.95L429.2,308.49l65.88-27.95Z"/>
        </g>
        <g class="cls-11">
            <path class="cls-4" d="M495.15,344.86l-.53-8.5.53.24.52-.24Z"/>
        </g>
        <g class="cls-12">
            <path class="cls-4" d="M540.7,317.23l-45.6,19.82v-.51l-.51-.27Z"/>
        </g>
        <g class="cls-12">
            <path class="cls-4" d="M449.51,317.23l45.6,19.82v-.51l.51-.27Z"/>
        </g>
        <g class="cls-12">
            <g class="cls-11">
                <path class="cls-13" d="M548.94,310.25c.66,5.58-45.69,17.53-58.76,18.08-35-4.34-48.39-15.86-50.9-20.73,4-3.12,15.11-10.41,50.09-6.07S548.8,309.08,548.94,310.25Z"/>
            </g>
            <g class="cls-11">
                <path class="cls-1" d="M552.94,307.71c1.8,15.51-31.51,30.13-57.45,26.87S434.75,319.27,433,303.76s28.14-7.19,54.07-3.92S551.14,292.2,552.94,307.71Z"/>
            </g>
            <g class="cls-11">
                <ellipse class="cls-1" cx="492.14" cy="313.98" rx="9.88" ry="47.54" transform="translate(115.4 759.91) rotate(-82.34)"/>
            </g>
        </g>
        <path class="cls-14" d="M442,311.11v-45l107.11,8.4v33.13L491.59,332Z"/>
        <path class="cls-15" d="M441.89,311.23V266.15L485,283.85l.91,41.79Z"/>
        <path class="cls-16" d="M495.08,345.31l.06,0,66.36-28.81-.21-.09-66.21-28.74-.05,0-66.37,28.8.22.1ZM561,316.48l-65.88,28.6-65.88-28.6,65.88-28.59Z"/>
        <path class="cls-17" d="M495.07,345.14v-8.29l66-28.32v8Z"/>
        <path class="cls-18" d="M495.07,345.15v-8.31l-66.3-28.27v8Z"/>
        <path class="cls-19" d="M494.92,280.59l-66.16,28,66.3,28.28,66.12-28.28Z"/>
        <g class="cls-9">
            <path class="cls-20" d="M495.08,336.85l66.42-28.2-.21-.09-66.21-28.08-.05,0-66.37,28.15.22.09ZM561,308.65l-65.88,28-65.88-28,65.88-27.95Z"/>
            <path class="cls-20" d="M495.08,336.85l66.42-28.2-.21-.09-66.21-28.08-.05,0-66.37,28.15.22.09ZM561,308.65l-65.88,28-65.88-28,65.88-27.95Z"/>
        </g>
        <g class="cls-11">
            <path class="cls-4" d="M495.15,345l-.53-8.5.53.24.52-.24Z"/>
        </g>
        <g class="cls-12">
            <path class="cls-4" d="M540.7,317.4l-45.6,19.82v-.51l-.51-.28Z"/>
        </g>
        <g class="cls-12">
            <path class="cls-4" d="M449.51,317.4l45.6,19.82v-.51l.51-.28Z"/>
        </g>
        <g class="cls-12">
            <g class="cls-11">
                <path class="cls-13" d="M548.94,310.41c.66,5.58-45.69,17.53-58.77,18.08-35-4.34-48.38-15.86-50.89-20.73,4-3.11,15.11-10.4,50.09-6.07S548.8,309.24,548.94,310.41Z"/>
            </g>
            <g class="cls-11">
                <path class="cls-1" d="M552.94,307.88c1.8,15.51-31.51,30.13-57.45,26.86s-60.74-15.3-62.54-30.81,28.14-7.2,54.07-3.93S551.14,292.37,552.94,307.88Z"/>
            </g>
            <g class="cls-11">
                <ellipse class="cls-1" cx="492.14" cy="314.15" rx="9.88" ry="47.54" transform="translate(115.23 760.05) rotate(-82.34)"/>
            </g>
        </g>
        <path class="cls-21" d="M442,311.27v-45l107.11,8.41V307.8l-57.53,24.38Z"/>
        <path class="cls-22" d="M441.89,311.4V266.31L485,284l.91,41.78Z"/>
        <path class="cls-5" d="M495.08,345.15l.06,0,66.36-28.8-.21-.1-66.21-28.73-.05,0-66.37,28.81.22.09ZM561,316.32l-65.88,28.6-65.88-28.6,65.88-28.6Z"/>
        <path class="cls-23" d="M495.07,345v-8.3l66-28.31v8Z"/>
        <path class="cls-24" d="M495.07,345v-8.31l-66.3-28.27v8Z"/>
        <path class="cls-25" d="M494.92,280.43l-66.16,28,66.3,28.28,66.12-28.28Z"/>
        <g class="cls-9">
            <path class="cls-10" d="M495.08,336.68l66.42-28.19-.21-.1-66.21-28.08-.05,0-66.37,28.16.22.09ZM561,308.49l-65.88,27.95L429.2,308.49l65.88-27.95Z"/>
            <path class="cls-10" d="M495.08,336.68l66.42-28.19-.21-.1-66.21-28.08-.05,0-66.37,28.16.22.09ZM561,308.49l-65.88,27.95L429.2,308.49l65.88-27.95Z"/>
        </g>
        <g class="cls-11">
            <path class="cls-4" d="M495.15,344.86l-.53-8.5.53.24.52-.24Z"/>
        </g>
        <g class="cls-12">
            <path class="cls-4" d="M540.7,317.23l-45.6,19.82v-.51l-.51-.27Z"/>
        </g>
        <g class="cls-12">
            <path class="cls-4" d="M449.51,317.23l45.6,19.82v-.51l.51-.27Z"/>
        </g>
        <g class="cls-12">
            <g class="cls-11">
                <path class="cls-13" d="M548.94,310.25c.66,5.58-45.69,17.53-58.77,18.08-35-4.34-48.38-15.86-50.89-20.73,4-3.12,15.11-10.41,50.09-6.07S548.8,309.08,548.94,310.25Z"/>
            </g>
            <g class="cls-11">
                <path class="cls-1" d="M552.94,307.71c1.8,15.51-31.51,30.13-57.45,26.87S434.75,319.27,433,303.76s28.14-7.19,54.07-3.92S551.14,292.2,552.94,307.71Z"/>
            </g>
            <g class="cls-11">
                <ellipse class="cls-1" cx="492.14" cy="313.98" rx="9.88" ry="47.54" transform="translate(115.39 759.91) rotate(-82.34)"/>
            </g>
        </g>
        <path class="cls-14" d="M442,311.11v-45l107.11,8.4v33.13L491.59,332Z"/>
        <path class="cls-15" d="M441.89,311.23V266.15L485,283.85l.91,41.79Z"/>
    </g>
    <g id="top">
        <path class="cls-26" d="M449.82,253.31l63.69-9.85-21,33.09Z"/>
        <path class="cls-27" d="M449.82,253.31l63.69-9.85-21,33.09Z"/>
        <path class="cls-1" d="M541.71,289.45,478,299.31l21-33.09Z"/>
        <path class="cls-26" d="M507,253.73l42.64,23.16-8,12.55L499,266.28Z"/>
        <path class="cls-28" d="M507,253.73l42.64,23.16-8,12.55L499,266.28Z"/>
        <path class="cls-1" d="M449.89,253.32l42.64,23.16-8,12.55-42.64-23.16Z"/>
        <path class="cls-29" d="M449.89,253.32l42.64,23.16-8,12.55-42.64-23.16Z"/>
        <path class="cls-30" d="M541.65,289.45,478,299.3l21-33.09Z"/>
        <path class="cls-26" d="M449.82,253.48l63.69-9.86-21,33.09Z"/>
        <path class="cls-31" d="M449.82,253.48l63.69-9.86-21,33.09Z"/>
        <path class="cls-1" d="M541.71,289.62,478,299.47l21-33.08Z"/>
        <path class="cls-26" d="M507,253.89l42.64,23.16-8,12.55L499,266.44Z"/>
        <path class="cls-32" d="M507,253.89l42.64,23.16-8,12.55L499,266.44Z"/>
        <path class="cls-1" d="M449.89,253.49l42.64,23.16-8,12.55L441.91,266Z"/>
        <path class="cls-33" d="M449.89,253.49l42.64,23.16-8,12.55L441.91,266Z"/>
        <path class="cls-34" d="M541.64,289.61,478,299.46l21-33.08Z"/>
        <path class="cls-26" d="M449.82,253.31l63.69-9.85-21,33.09Z"/>
        <path class="cls-1" d="M541.71,289.45,478,299.31l21-33.09Z"/>
        <path class="cls-26" d="M507,253.73l42.64,23.16-8,12.55L499,266.28Z"/>
        <path class="cls-1" d="M449.89,253.32l42.64,23.16-8,12.55-42.64-23.16Z"/>
        <path class="cls-27" d="M449.82,253.31l63.69-9.85-21,33.09Z"/>
        <path class="cls-35" d="M507,253.73l42.64,23.16-8,12.55L499,266.28Z"/>
        <path class="cls-36" d="M449.89,253.32l42.64,23.16-8,12.55-42.64-23.16Z"/>
        <path class="cls-37" d="M541.64,289.45,478,299.3l21-33.09Z"/>
    </g>
    <path id="arrow" class="cls-1" d="M14.9,22.18a.23.23,0,0,1,.25,0l7,4.15L15.06,9,7.88,26.6Z"/>
</svg>